<svg width="30" height="30" viewBox="0 0 30 30" fill="none" xmlns="http://www.w3.org/2000/svg">
<path d="M15 30C6.7289 30 0 23.2711 0 15C0 6.7289 6.7289 0 15 0C23.2711 0 30 6.7289 30 15C30 23.2711 23.2711 30 15 30ZM15 2.14279C7.91061 2.14279 2.14279 7.91061 2.14279 15C2.14279 22.0894 7.91061 27.8572 15 27.8572C22.0894 27.8572 27.8572 22.0894 27.8572 15C27.8572 7.91061 22.0894 2.14279 15 2.14279Z" fill="black"/>
<path d="M20.357 21.4286C20.0828 21.4286 19.8086 21.324 19.5994 21.1146L8.88526 10.4004C8.46663 9.98177 8.46663 9.30382 8.88526 8.88542C9.30365 8.46703 9.98183 8.4668 10.4002 8.88542L21.1144 19.5996C21.533 20.0182 21.533 20.6962 21.1144 21.1146C20.9052 21.324 20.6312 21.4286 20.357 21.4286V21.4286Z" fill="black"/>
<path d="M9.64263 21.4286C9.36843 21.4286 9.09446 21.324 8.88526 21.1146C8.46663 20.6962 8.46663 20.018 8.88526 19.5996L19.5994 8.88543C20.0181 8.4668 20.696 8.4668 21.1144 8.88543C21.5328 9.30382 21.533 9.982 21.1144 10.4004L10.4002 21.1146C10.191 21.324 9.91683 21.4286 9.64263 21.4286V21.4286Z" fill="black"/>
</svg>
