<svg width="11" height="11" viewBox="0 0 11 11" fill="none" xmlns="http://www.w3.org/2000/svg">
<path d="M11 6.74185V10.9973H8.64194V7.02822C8.64194 6.02993 8.30179 5.35012 7.44757 5.35012C6.7954 5.35012 6.40921 5.80779 6.23785 6.25207C6.17647 6.40998 6.15857 6.63212 6.15857 6.85426V11H3.80051C3.80051 11 3.8312 4.27421 3.80051 3.57835H6.15857V4.63017C6.15345 4.6382 6.14834 4.64623 6.14322 4.65426H6.15857V4.63017C6.47315 4.12433 7.03069 3.40438 8.28389 3.40438C9.83632 3.4017 11 4.46423 11 6.74185ZM1.33504 0C0.526854 0 0 0.554015 0 1.282C0 1.99392 0.511509 2.56399 1.30435 2.56399H1.31969C2.14322 2.56399 2.65473 1.99392 2.65473 1.282C2.63683 0.554015 2.14067 0 1.33504 0ZM0.140665 11H2.49872V3.57567H0.140665V11Z" fill="white"/>
</svg>
