<svg width="13" height="13" viewBox="0 0 13 13" fill="none" xmlns="http://www.w3.org/2000/svg">
<path d="M3.58761 0H9.41255C11.3907 0 13 1.60941 13 3.58753V9.41247C13 11.3907 11.3907 13 9.41255 13H3.58761C1.60933 13 -9.53674e-07 11.3906 -9.53674e-07 9.41247V3.58753C-7.72476e-05 1.60941 1.60933 0 3.58761 0ZM1.15335 9.41247C1.15335 10.7547 2.24533 11.8466 3.58753 11.8466H9.41255C10.7547 11.8467 11.8466 10.7547 11.8466 9.41247V3.58753C11.8466 2.24541 10.7547 1.15342 9.41255 1.15342H3.58761C2.24541 1.15342 1.15342 2.24541 1.15342 3.58753V9.41247H1.15335Z" fill="white"/>
<path d="M6.49984 3.15039C8.34693 3.15039 9.84961 4.65307 9.84961 6.50016C9.84961 8.34718 8.34693 9.84978 6.49984 9.84978C4.65275 9.84978 3.15007 8.34718 3.15007 6.50016C3.15007 4.65307 4.65275 3.15039 6.49984 3.15039ZM6.49984 8.69628C7.71086 8.69628 8.69619 7.7111 8.69619 6.50008C8.69619 5.28899 7.71093 4.30374 6.49984 4.30374C5.28874 4.30374 4.30349 5.28899 4.30349 6.50008C4.30349 7.7111 5.28882 8.69628 6.49984 8.69628Z" fill="white"/>
<path d="M3.00962 2.17236C3.23185 2.17236 3.45016 2.26233 3.6071 2.41996C3.76481 2.57683 3.85547 2.79521 3.85547 3.01821C3.85547 3.24051 3.76473 3.45881 3.6071 3.61645C3.45023 3.77331 3.23185 3.86405 3.00962 3.86405C2.78663 3.86405 2.56902 3.77331 2.41138 3.61645C2.25375 3.45881 2.16378 3.24043 2.16378 3.01821C2.16378 2.79521 2.25375 2.57683 2.41138 2.41996C2.56825 2.26233 2.78663 2.17236 3.00962 2.17236Z" fill="white"/>
</svg>
