<svg width="40" height="40" viewBox="0 0 40 40" fill="none" xmlns="http://www.w3.org/2000/svg">
<circle cx="20" cy="20" r="19.5" fill="#0077B5" stroke="#0077B5"/>
<path d="M28 21.1934V26.9963H24.7845V21.5839C24.7845 20.2226 24.3206 19.2956 23.1558 19.2956C22.2664 19.2956 21.7398 19.9197 21.5062 20.5255C21.4225 20.7409 21.398 21.0438 21.398 21.3467V27H18.1825C18.1825 27 18.2244 17.8285 18.1825 16.8796H21.398V18.3139C21.3911 18.3248 21.3841 18.3358 21.3771 18.3467H21.398V18.3139C21.827 17.6241 22.5873 16.6423 24.2962 16.6423C26.4132 16.6387 28 18.0876 28 21.1934ZM14.8205 12C13.7184 12 13 12.7555 13 13.7482C13 14.719 13.6975 15.4964 14.7787 15.4964H14.7996C15.9226 15.4964 16.6201 14.719 16.6201 13.7482C16.5957 12.7555 15.9191 12 14.8205 12ZM13.1918 27H16.4073V16.8759H13.1918V27Z" fill="white"/>
</svg>
