<svg width="13" height="11" viewBox="0 0 13 11" fill="none" xmlns="http://www.w3.org/2000/svg">
<path d="M10.4654 11C10.3639 11 10.263 10.9716 10.1765 10.9161L6.90775 8.81861L5.15459 10.012C5.01709 10.1055 4.83987 10.129 4.68021 10.075C4.52076 10.0209 4.39966 9.89597 4.35643 9.74104L3.47615 6.58523L0.330788 5.44751C0.132775 5.37586 0.00145282 5.19665 1.19732e-05 4.9961C-0.00142887 4.79554 0.127286 4.61465 0.324339 4.54047L12.2842 0.0386592C12.3384 0.0168511 12.3959 0.00425954 12.4538 0.000884486C12.4745 -0.000283803 12.4953 -0.000283768 12.5159 0.000819616C12.6359 0.00756973 12.7537 0.053782 12.8456 0.139067C12.8551 0.147894 12.8642 0.156916 12.8728 0.166327C12.9489 0.248627 12.9908 0.34897 12.9987 0.451195C13.0006 0.476897 13.0005 0.502924 12.9981 0.528951C12.9964 0.547514 12.9936 0.566012 12.9896 0.58438L10.9709 10.6043C10.9384 10.7653 10.8226 10.9 10.6626 10.9628C10.5991 10.9877 10.5321 11 10.4654 11ZM7.19476 7.82634L10.1064 9.69463L11.6772 1.89799L6.00393 7.06222L7.18103 7.81758C7.18577 7.82037 7.1903 7.82336 7.19476 7.82634ZM4.77092 7.41089L5.16077 8.80829L6.00071 8.23654L4.90087 7.53077C4.84975 7.49805 4.80598 7.45729 4.77092 7.41089ZM1.93047 4.9837L4.09022 5.76483C4.24494 5.82078 4.36172 5.94384 4.40398 6.09533L4.67788 7.07728C4.69043 6.96402 4.74471 6.85744 4.83287 6.77716L10.2387 1.85645L1.93047 4.9837Z" fill="white"/>
</svg>
